<svg id="图层_1" data-name="图层 1" xmlns="http://www.w3.org/2000/svg" xmlns:xlink="http://www.w3.org/1999/xlink" viewBox="0 0 1152.25488 1096.53388"><defs><style>.cls-1{fill:url(#蓝色);}.cls-2{fill:#ff3615;fill-rule:evenodd;}.cls-3{font-size:123.3036px;}.cls-3,.cls-4{font-family:Quantico-BoldItalic, Quantico;font-weight:700;font-style:italic;}.cls-4{font-size:89.62037px;}</style><linearGradient id="蓝色" x1="801.89364" y1="505.98676" x2="1336.26185" y2="505.98676" gradientUnits="userSpaceOnUse"><stop offset="0" stop-color="#3fbff0"/><stop offset="0.5" stop-color="#00a1e9"/><stop offset="1" stop-color="#008dd7"/></linearGradient></defs><title>彩色矢量</title><path class="cls-1" d="M1207.324,382.15839a176.02872,176.02872,0,0,0-276.297-.25632c-73.47787,14.2702-129.13329,79.11534-129.13329,156.703,0,76.486,54.07594,140.5721,126.00221,156.05492V612.70474a81.3667,81.3667,0,0,1,48.89751-154.0219,97.84457,97.84457,0,0,1,184.49582-.22541,82.6044,82.6044,0,0,1,48.97565,156.27673v82.15313c71.9902-15.96761,125.997-80.3137,125.997-157.04572C1336.26185,462.0633,1280.79006,397.00368,1207.324,382.15839Z" transform="translate(-489.98926 -315.08624)"/><path class="cls-2" d="M826.31746,1084.98364l164.81484-372.217L823.98312,772.61534H930.3453L766.42719,934.00964a347.581,347.581,0,0,1-47.43147-175.61173c0-.21431,0-.42572.00293-.63826l279.49307-60.87236H666.51485q-2.44106,15.9901-3.61612,32.367a409.859,409.859,0,0,0,1.16222,71.47543,403.98881,403.98881,0,0,0,48.886,154.7401,410.77782,410.77782,0,0,0,113.37046,129.51378ZM1037.63435,650.942l-78.35539-.00146,109.79878-104.5319v619.2016a404.20275,404.20275,0,0,1-174.40419-39.38527l142.9608-475.283Z" transform="translate(-489.98926 -315.08624)"/><path class="cls-2" d="M1311.83773,1084.98364l-164.81334-372.217,167.14918,59.84875H1207.80989l163.91957,161.3943a347.56632,347.56632,0,0,0,47.4315-175.61173c0-.21431,0-.42572-.00293-.63826l-279.49456-60.87236h331.97687q2.44112,15.9901,3.61758,32.367a409.85509,409.85509,0,0,1-1.1622,71.47543,403.94,403.94,0,0,1-48.88752,154.7401,410.71619,410.71619,0,0,1-113.37047,129.51378ZM1100.52117,650.942l78.35653-.00146-109.8-104.5319v619.2016a404.214,404.214,0,0,0,174.4054-39.38527l-142.962-475.283Z" transform="translate(-489.98926 -315.08624)"/><text class="cls-3" transform="translate(0 962.90107)">CWO Meeting 2021</text><text class="cls-4" transform="translate(251.14014 1063.64325)">Road of Revival</text></svg>