<svg id="图层_1" data-name="图层 1" xmlns="http://www.w3.org/2000/svg" xmlns:xlink="http://www.w3.org/1999/xlink" viewBox="0 0 1633.15125 452.28876"><defs><style>.cls-1{fill:url(#蓝色);}.cls-2{fill:#ff3615;fill-rule:evenodd;}.cls-3{font-size:123.3036px;}.cls-3,.cls-4{font-family:Quantico-BoldItalic, Quantico;font-weight:700;font-style:italic;}.cls-4{font-size:89.62037px;}</style><linearGradient id="蓝色" x1="364.89792" y1="764.6145" x2="649.06245" y2="764.6145" gradientUnits="userSpaceOnUse"><stop offset="0" stop-color="#3fbff0"/><stop offset="0.5" stop-color="#00a1e9"/><stop offset="1" stop-color="#008dd7"/></linearGradient></defs><title>彩色矢量</title><path class="cls-1" d="M580.49629,698.76546a93.60795,93.60795,0,0,0-146.9283-.1363,84.89414,84.89414,0,0,0-1.665,166.31735V821.36462a43.26891,43.26891,0,0,1,26.00256-81.90524,52.03145,52.03145,0,0,1,98.11056-.11987,43.92709,43.92709,0,0,1,26.04411,83.10431v43.68712a85.55192,85.55192,0,0,0-1.56389-167.36548Z" transform="translate(-290.43371 -663.09806)"/><path class="cls-2" d="M377.88594,1072.51151l87.64468-197.93633-88.886,31.82617h56.56093l-87.16783,85.82571a184.83555,184.83555,0,0,1-25.22294-93.38621c0-.114,0-.22639.00155-.33941l148.62789-32.3705H292.90665q-1.2981,8.50315-1.923,17.212a217.9537,217.9537,0,0,0,.618,38.009,214.83165,214.83165,0,0,0,25.99646,82.28716,218.44189,218.44189,0,0,0,60.28776,68.87241ZM490.25932,841.69828l-41.66756-.00078,58.38843-55.58762v329.27694a214.94559,214.94559,0,0,1-92.74408-20.94416l76.02321-252.74438Z" transform="translate(-290.43371 -663.09806)"/><path class="cls-2" d="M636.07428,1072.51151,548.43039,874.57518l88.886,31.82617H580.7547l87.1686,85.82571a184.82765,184.82765,0,0,0,25.223-93.38621c0-.114,0-.22639-.00156-.33941L544.516,866.13094H721.05357q1.29813,8.50315,1.92375,17.212a217.9537,217.9537,0,0,1-.618,38.009A214.80583,214.80583,0,0,1,696.362,1003.6391a218.40921,218.40921,0,0,1-60.28776,68.87241ZM523.70106,841.69828l41.66818-.00078-58.389-55.58762v329.27694a214.95158,214.95158,0,0,0,92.74471-20.94416L523.70106,841.69828Z" transform="translate(-290.43371 -663.09806)"/><text class="cls-3" transform="translate(480.89658 283.63925)">CWO Meeting 2021</text><text class="cls-4" transform="translate(732.03672 384.38143)">Road of Revival</text></svg>