<svg id="图层_1" data-name="图层 1" xmlns="http://www.w3.org/2000/svg" viewBox="0 0 1926.81705 303.93789"><defs><style>.cls-1,.cls-2,.cls-3,.cls-4,.cls-5,.cls-6,.cls-7,.cls-8,.cls-9{isolation:isolate;}.cls-2,.cls-3,.cls-4,.cls-5{font-size:80.79176px;font-family:IBMPlexSerif, IBM Plex Serif;}.cls-2{letter-spacing:-0.009em;}.cls-4{letter-spacing:-0.00201em;}.cls-5{letter-spacing:-0.014em;}.cls-6,.cls-7,.cls-8,.cls-9{font-size:61.2883px;font-family:IBMPlexSerif-Text, IBM Plex Serif;}.cls-6{letter-spacing:-0.045em;}.cls-8{letter-spacing:0.01em;}.cls-9{letter-spacing:0.00901em;}</style></defs><title>黑白矢量</title><path d="M573.94494,1003.18236s57.53228-21.9171,61.18492-77.16644L840.60289,759.811l-42.46457,83.10247-126.47991,85.8418,173.967-93.14751-49.77,70.77383-138.3516,47.94381L822.33841,921.9063l-55.7059,42.00782L649.74152,969.85l137.43826,17.8077L731.47389,1009.118l-88.125-24.2001,74.88342,37.89835-50.22663-3.65282-35.61538-23.287,24.65685,31.506-36.072-5.936-8.67557-15.981-2.73972,18.26407-14.15466-4.566v-11.87188l-13.24156,13.69808Z" transform="translate(-64.08041 -748.86705)"/><path d="M335.76107,1003.18236s-57.53233-21.9171-61.18519-77.16641L69.10313,759.811l42.46435,83.10247,126.47992,85.8418-173.967-93.14751,49.77,70.77383,138.35161,47.94381L87.3674,921.9063l55.70607,42.00779L259.96429,969.85,122.526,987.65766l55.7061,21.46037,88.125-24.2001-74.88345,37.89835,50.2266-3.65282,35.61539-23.287-24.65685,31.506,36.07175-5.936,8.67557-15.981,2.73973,18.26407,14.15466-4.566v-11.87188l13.24155,13.69808Z" transform="translate(-64.08041 -748.86705)"/><polygon points="321.736 125.731 391.834 90.188 463.411 125.731 392.575 161.767 321.736 125.731"/><polygon points="321.736 135.109 392.575 170.159 463.411 135.109 463.411 152.638 392.575 188.425 321.736 153.376 321.736 135.109"/><polygon points="321.736 161.767 392.575 197.802 463.411 161.767 463.411 179.786 392.575 215.081 321.736 179.54 321.736 161.767"/><path d="M547.9527,793.83694a118.022,118.022,0,0,0-185.249-.17185,107.03555,107.03555,0,0,0-2.0993,209.69492V948.41144a54.554,54.554,0,0,1,32.78434-103.26712,65.60188,65.60188,0,0,1,123.699-.15113,55.38381,55.38381,0,0,1,32.83673,104.77892v55.08124a107.86489,107.86489,0,0,0-1.97177-211.01641Z" transform="translate(-64.08041 -748.86705)"/><path d="M456.656,973.32772,385.81689,937.292v80.46414l70.83912,35.04878,70.83581-35.54346V937.292Zm-38.50535,48.86885a3.94833,3.94833,0,1,1,.00411,0Zm12.83436,5.18594a3.99033,3.99033,0,1,1,.0056-.00006h-.0056Zm12.83558,6.1728a3.95053,3.95053,0,1,0,0-.00006Z" transform="translate(-64.08041 -748.86705)"/><g class="cls-1"><text class="cls-2" transform="translate(806.34049 161.7667) scale(1.00557 1)">C</text><text class="cls-3" transform="translate(859.30924 161.7667) scale(1.00557 1)">ommuni</text><text class="cls-4" transform="translate(1195.64811 161.7667) scale(1.00557 1)">c</text><text class="cls-2" transform="translate(1238.38053 161.7667) scale(1.00557 1)">a</text><text class="cls-3" transform="translate(1282.90299 161.7667) scale(1.00557 1)">tion </text><text class="cls-5" transform="translate(1457.73111 161.7667) scale(1.00557 1)">W</text><text class="cls-3" transform="translate(1536.69889 161.7667) scale(1.00557 1)">ith Others</text></g><g class="cls-1"><text class="cls-6" transform="translate(1111.47135 244.37266) scale(0.90938 1)">T</text><text class="cls-7" transform="translate(1146.91959 244.37266) scale(0.90938 1)">echnolo</text><text class="cls-8" transform="translate(1362.60709 244.37266) scale(0.90938 1)">g</text><text class="cls-7" transform="translate(1394.71061 244.37266) scale(0.90938 1)">y &amp; Id</text><text class="cls-9" transform="translate(1547.75455 244.37266) scale(0.90938 1)">e</text><text class="cls-7" transform="translate(1579.13151 244.37266) scale(0.90938 1)">a</text></g></svg>