<svg id="图层_1" data-name="图层 1" xmlns="http://www.w3.org/2000/svg" xmlns:xlink="http://www.w3.org/1999/xlink" viewBox="0 0 1602.45239 813.96977"><defs><style>.cls-1{fill:url(#红橙色);}.cls-2{fill:url(#红橙色-2);}.cls-3{fill:url(#水_9);}.cls-4{font-size:93.60473px;font-family:IBMPlexSerif, IBM Plex Serif;}.cls-5{letter-spacing:-0.01em;}.cls-6{letter-spacing:-0.00299em;}.cls-7{letter-spacing:-0.01499em;}.cls-8{font-size:71.00816px;font-family:IBMPlexSerif-Text, IBM Plex Serif;}.cls-9{letter-spacing:-0.045em;}.cls-10{letter-spacing:0.01001em;}.cls-11{letter-spacing:-0.00002em;}.cls-12{letter-spacing:0.00998em;}</style><linearGradient id="红橙色" x1="1244.18216" y1="814.10088" x2="1801.22619" y2="814.10088" gradientUnits="userSpaceOnUse"><stop offset="0" stop-color="#ee7e55"/><stop offset="0.5" stop-color="#e50012"/><stop offset="1" stop-color="#cf121b"/></linearGradient><linearGradient id="红橙色-2" x1="198.77381" y1="814.10088" x2="755.81831" y2="814.10088" xlink:href="#红橙色"/><linearGradient id="水_9" x1="633.53988" y1="779.7899" x2="1368.14063" y2="779.7899" gradientUnits="userSpaceOnUse"><stop offset="0" stop-color="#92adcc"/><stop offset="0.5" stop-color="#7299bf"/><stop offset="1" stop-color="#2977a7"/></linearGradient></defs><title>彩色矢量</title><path class="cls-1" d="M1244.18216,1038.79141s117.96221-44.93806,125.45148-158.21933L1790.9282,539.79134l-87.06781,170.39037-259.33,176.007,356.69578-190.98637-102.04675,145.1122-283.67122,98.30232,337.97118-66.471L1639.262,958.27718,1399.59276,970.4478l281.7986,36.51228L1567.174,1050.96163l-180.68836-49.619,153.53838,77.7055-102.98285-7.48967-73.02456-47.7468,50.55552,64.59878-73.96066-12.171-17.78809-32.767-5.61746,37.448-29.02219-9.36189v-24.34166l-27.15,28.08608Z" transform="translate(-198.77381 -517.36226)"/><path class="cls-2" d="M755.81831,1038.79141S637.856,993.85335,630.36636,880.57208L209.07222,539.79134l87.06739,170.39037,259.33,176.007L198.77381,695.20235l102.04675,145.1122,283.67122,98.30232-337.97118-66.471,114.21779,86.1313L600.40724,970.4478l-281.7986,36.51228,114.21784,44.00155,180.68831-49.619-153.53838,77.7055,102.98285-7.48967,73.02456-47.7468-50.55552,64.59878,73.96025-12.171,17.78809-32.767,5.61746,37.448,29.02219-9.36189v-24.34166l27.15,28.08608Z" transform="translate(-198.77381 -517.36226)"/><polygon points="659.677 257.785 803.402 184.908 950.162 257.785 804.923 331.671 659.677 257.785"/><polygon points="659.677 277.012 804.923 348.879 950.162 277.012 950.162 312.953 804.923 386.33 659.677 314.467 659.677 277.012"/><polygon points="659.677 331.671 804.923 405.557 950.162 331.671 950.162 368.617 804.923 440.984 659.677 368.112 659.677 331.671"/><path class="cls-3" d="M1190.88856,609.55687a241.98828,241.98828,0,0,0-379.828-.35238C710.04987,628.82192,633.53988,717.96508,633.53988,824.62555c0,105.146,74.33865,193.24575,173.21637,214.53011V926.491A111.85554,111.85554,0,0,1,873.9761,714.75576a134.5078,134.5078,0,0,1,253.628-.30989,113.557,113.557,0,0,1,67.32728,214.835v112.93665c98.96564-21.9508,173.20929-110.40794,173.20929-215.89215C1368.14063,719.40292,1291.88306,629.96486,1190.88856,609.55687Z" transform="translate(-198.77381 -517.36226)"/><path d="M1003.697,977.57847,858.451,903.69216V1068.673l145.246,71.86284,145.23932-72.87707V903.69216Zm-78.95,100.19894a8.09472,8.09472,0,1,1,8.09972-8.09431A8.09283,8.09283,0,0,1,924.747,1077.77741Zm26.31514,10.633a8.09473,8.09473,0,1,1,8.0993-8.10014A8.09389,8.09389,0,0,1,951.06214,1088.41043Zm26.31763,12.65648a8.09722,8.09722,0,1,1,8.0968-8.10013A8.10286,8.10286,0,0,1,977.37977,1101.06691Z" transform="translate(-198.77381 -517.36226)"/><text class="cls-4" transform="translate(172.27223 699.94332) scale(1.00557 1)"><tspan class="cls-5">C</tspan><tspan x="61.02958" y="0">ommuni</tspan><tspan class="cls-6" x="448.55007" y="0">c</tspan><tspan class="cls-5" x="497.78647" y="0">a</tspan><tspan x="549.0822" y="0">tion </tspan><tspan class="cls-7" x="750.51551" y="0">W</tspan><tspan x="841.49977" y="0">ith Others</tspan></text><text class="cls-8" transform="translate(525.79469 795.65036) scale(0.90938 1)"><tspan class="cls-9">T</tspan><tspan x="45.16141" y="0">echnolo</tspan><tspan class="cls-10" x="319.9577" y="0">g</tspan><tspan class="cls-11" x="360.8585" y="0">y &amp; Id</tspan><tspan class="cls-12" x="555.84363" y="0">e</tspan><tspan x="595.81981" y="0">a</tspan></text></svg>